<svg width="309" height="62" viewBox="0 0 309 62" fill="none" xmlns="http://www.w3.org/2000/svg">
<mask id="mask0_8684_7989" style="mask-type:luminance" maskUnits="userSpaceOnUse" x="0" y="0" width="78" height="62">
<path d="M77.7416 0H0V62H77.7416V0Z" fill="white"/>
</mask>
<g mask="url(#mask0_8684_7989)">
<path d="M23.2946 0H77.7417L65.2934 17.1911H10.6174L23.2946 0Z" fill="white"/>
<path d="M10.592 17.1912H37.7774L24.1593 35.603L10.592 17.1912Z" fill="white"/>
<path d="M54.4471 62H0L12.461 44.8216H67.137L54.4471 62Z" fill="white"/>
<path d="M67.1497 44.8216H39.977L53.557 26.4098L67.1497 44.8216Z" fill="white"/>
</g>
<path d="M95.1234 49.7551C93.0354 49.7912 90.9521 49.5431 88.931 49.0176C87.3263 48.5814 85.8142 47.8576 84.4679 46.8814C83.3141 45.9892 82.3792 44.8454 81.7341 43.5373C81.0757 42.145 80.6956 40.6376 80.6152 39.0996H83.1582C83.3481 40.4976 83.8383 41.838 84.5951 43.0287C85.2495 44.0326 86.118 44.8793 87.1381 45.5082C88.2337 46.1339 89.4299 46.5642 90.673 46.7797C92.0606 47.0402 93.4699 47.1679 94.8818 47.1612C96.2904 47.18 97.6959 47.0219 99.0651 46.6907C100.2 46.3984 101.275 45.9123 102.244 45.2539C103.076 44.6732 103.767 43.9127 104.266 43.0287C104.737 42.0991 104.976 41.0698 104.965 40.0278C104.999 39.0141 104.79 38.007 104.355 37.0906C103.882 36.2181 103.178 35.4923 102.32 34.9926C101.127 34.2922 99.8434 33.7575 98.5057 33.4032C96.9544 32.9327 95.0217 32.4495 92.7075 31.9663C91.044 31.6134 89.4113 31.1287 87.8248 30.5168C86.6084 30.0535 85.4684 29.4106 84.4425 28.6095C83.5958 27.9243 82.9173 27.0544 82.4589 26.0664C82.0182 25.0165 81.8016 23.8861 81.8231 22.7477C81.8051 21.4748 82.0883 20.2156 82.6496 19.073C83.2244 17.9357 84.0506 16.9443 85.0655 16.1739C86.2129 15.3212 87.5053 14.6836 88.8801 14.292C90.4746 13.8293 92.1281 13.6022 93.7883 13.6181C95.4457 13.6037 97.0973 13.8176 98.6964 14.2539C100.089 14.6167 101.407 15.2237 102.587 16.0467C103.695 16.8127 104.629 17.8048 105.326 18.9576C106.023 20.1104 106.467 21.3978 106.631 22.735H104.266C104.038 21.8063 103.651 20.9242 103.121 20.1283C102.577 19.3047 101.872 18.5996 101.049 18.0557C100.139 17.4207 99.1228 16.9555 98.0479 16.6825C96.7613 16.3227 95.4292 16.1514 94.0934 16.1739C91.5928 15.9705 89.0899 16.5385 86.922 17.8014C86.1596 18.3239 85.541 19.0299 85.1233 19.8543C84.7055 20.6787 84.502 21.5951 84.5315 22.5188C84.5148 23.3377 84.6663 24.1513 84.9765 24.9093C85.3096 25.6532 85.8205 26.3039 86.4642 26.8039C87.3392 27.4071 88.2934 27.8864 89.2998 28.228C90.7328 28.7026 92.1935 29.0891 93.6738 29.3851L96.8272 30.0463C97.908 30.2879 98.9634 30.5549 99.9806 30.8855C100.998 31.1948 101.989 31.586 102.943 32.0553C103.841 32.4962 104.662 33.0802 105.372 33.7846C106.087 34.4796 106.65 35.3152 107.025 36.2387C107.478 37.2938 107.695 38.4351 107.661 39.5828C107.676 41.0084 107.349 42.417 106.707 43.6899C106.08 44.941 105.191 46.0425 104.1 46.9196C102.907 47.8545 101.555 48.5654 100.108 49.0176C98.4954 49.5237 96.8133 49.7726 95.1234 49.7551ZM140.644 49.1193H115.43V14.203H139.78V16.7461H117.973V29.6648H138.406V32.2079H117.973V46.5635H140.644V49.1193ZM169.139 49.1193H148.579V14.203H151.122V46.5635H169.114L169.139 49.1193ZM196.744 49.1193H176.184V14.203H178.727V46.5635H196.732L196.744 49.1193ZM207.336 49.1193H204.793V14.203H207.336V49.1193ZM230.288 49.7551C228.199 49.7912 226.116 49.5431 224.095 49.0176C222.49 48.5814 220.978 47.8576 219.632 46.8814C218.478 45.9892 217.543 44.8454 216.898 43.5373C216.24 42.145 215.86 40.6376 215.779 39.0996H218.322C218.512 40.4976 219.002 41.838 219.759 43.0287C220.414 44.0326 221.282 44.8793 222.302 45.5082C223.398 46.1339 224.594 46.5642 225.837 46.7797C227.225 47.0402 228.634 47.1679 230.046 47.1612C231.455 47.18 232.86 47.0219 234.229 46.6907C235.364 46.3984 236.439 45.9123 237.408 45.2539C238.257 44.669 238.958 43.894 239.455 42.9905C239.9 42.0664 240.138 41.0567 240.154 40.0313C240.169 39.0059 239.961 37.9895 239.544 37.0525C239.075 36.1772 238.37 35.4505 237.51 34.9544C236.316 34.2551 235.033 33.7204 233.695 33.365C232.144 32.8945 230.199 32.4114 227.884 31.9282C226.218 31.5883 224.581 31.1164 222.989 30.5168C221.773 30.0535 220.632 29.4106 219.607 28.6095C218.76 27.9243 218.081 27.0544 217.623 26.0664C217.182 25.0165 216.966 23.8861 216.987 22.7477C216.973 21.4545 217.269 20.1768 217.852 19.0221C218.431 17.8843 219.262 16.893 220.281 16.123C221.427 15.2689 222.72 14.6311 224.095 14.2411C225.69 13.7793 227.343 13.5523 229.003 13.5672C230.661 13.5529 232.312 13.7668 233.911 14.203C235.295 14.5686 236.604 15.1755 237.777 15.9959C238.87 16.7497 239.792 17.7244 240.485 18.8568C241.196 20.0192 241.651 21.3195 241.82 22.6714H239.366C239.139 21.7427 238.752 20.8607 238.222 20.0648C237.678 19.2411 236.973 18.536 236.149 17.9922C235.24 17.3571 234.223 16.8919 233.148 16.6189C231.866 16.2591 230.538 16.0878 229.207 16.1103C226.714 15.945 224.23 16.5438 222.086 17.8269C221.324 18.3493 220.705 19.0553 220.287 19.8797C219.87 20.7042 219.666 21.6205 219.696 22.5443C219.679 23.3631 219.83 24.1767 220.141 24.9347C220.483 25.6662 220.998 26.3034 221.641 26.7912C222.518 27.3918 223.471 27.8708 224.477 28.2153C225.91 28.6899 227.37 29.0763 228.851 29.3724L232.004 30.0336C233.085 30.2752 234.14 30.5422 235.157 30.8728C236.175 31.1821 237.166 31.5733 238.12 32.0426C239.02 32.4803 239.841 33.0647 240.549 33.7719C241.264 34.4668 241.826 35.3025 242.202 36.226C242.659 37.2801 242.88 38.4214 242.85 39.5701C242.867 40.9973 242.535 42.4071 241.884 43.6771C241.275 44.9222 240.408 46.0232 239.341 46.9068C238.114 47.8586 236.722 48.5744 235.234 49.0176C233.634 49.5198 231.965 49.7686 230.288 49.7551ZM274.562 16.7588H262.356V49.1193H259.813V16.7588H247.733V14.2157H274.575L274.562 16.7588ZM308.449 49.1193H305.397L301.125 37.8917H283.934C283.323 39.6591 282.662 41.5283 281.925 43.4991L279.852 49.1193H277.194L280.577 40.2186C281.708 37.3195 282.815 34.4585 283.921 31.6103C285.027 28.7621 286.133 25.863 287.24 22.9639C288.346 20.0648 289.503 17.1275 290.647 14.1394H294.258L308.449 49.1193ZM300.387 35.8826L292.288 16.5299L284.658 35.9462L300.387 35.8826Z" fill="white"/>
</svg>
